<?xml version="1.0" encoding="utf-8"?>
<!-- Generator: Adobe Illustrator 15.0.0, SVG Export Plug-In . SVG Version: 6.00 Build 0)  -->
<!DOCTYPE svg PUBLIC "-//W3C//DTD SVG 1.1//EN" "http://www.w3.org/Graphics/SVG/1.1/DTD/svg11.dtd">
<svg version="1.1" id="Warstwa_1" xmlns="http://www.w3.org/2000/svg" xmlns:xlink="http://www.w3.org/1999/xlink" x="0px" y="0px"
	 width="128px" height="16px" viewBox="0 0 256 32"  xml:space="preserve">
<g class="logo_text">
	<path fill="#ECEFF4" d="M21.075,4.1v3.668h-10.5v4.256h9.436v3.668h-9.436v4.34h10.808V23.7H6.15V4.1H21.075z"/>
	<path fill="#ECEFF4" d="M39.742,7.684c-1.484,0-2.492,0.531-2.492,1.596c0,3.612,10.444,1.596,10.416,8.653
		c0,3.836-3.332,5.907-7.672,5.907c-3.22,0-6.44-1.231-8.652-3.107l1.764-3.612c2.016,1.792,4.872,2.94,6.944,2.94
		c1.82,0,2.912-0.672,2.912-1.876c0-3.697-10.444-1.541-10.444-8.485c0-3.556,3.052-5.796,7.588-5.796
		c2.744,0,5.488,0.84,7.448,2.128L45.846,9.7C43.774,8.467,41.31,7.684,39.742,7.684z"/>
	<path fill="#ECEFF4" d="M65.684,7.684c-1.484,0-2.492,0.531-2.492,1.596c0,3.612,10.444,1.596,10.416,8.653
		c0,3.836-3.332,5.907-7.672,5.907c-3.22,0-6.44-1.231-8.652-3.107l1.764-3.612c2.016,1.792,4.872,2.94,6.944,2.94
		c1.82,0,2.912-0.672,2.912-1.876c0-3.697-10.444-1.541-10.444-8.485c0-3.556,3.052-5.796,7.588-5.796
		c2.744,0,5.488,0.84,7.448,2.128L71.788,9.7C69.716,8.467,67.252,7.684,65.684,7.684z"/>
	<path fill="#ECEFF4" d="M99.88,4.1v3.668h-10.5v4.256h9.436v3.668H89.38v4.34h10.808V23.7H84.956V4.1H99.88z"/>
	<path fill="#ECEFF4" d="M115.882,4.1l9.52,12.6V4.1h4.2v19.6h-4.032l-9.492-12.573V23.7h-4.228V4.1H115.882z"/>
	<path fill="#ECEFF4" d="M156.202,4.1v3.752h-5.992V23.7h-4.424V7.852h-5.964V4.1H156.202z"/>
	<path fill="#ECEFF4" d="M170.829,4.1v19.6h-4.424V4.1H170.829z"/>
	<path fill="#ECEFF4" d="M196.043,19.893h-9.072l-1.54,3.808h-4.563l8.512-19.6h4.563l8.372,19.6h-4.731L196.043,19.893z
		 M194.615,16.335l-3.08-7.615l-3.108,7.615H194.615z"/>
	<path fill="#ECEFF4" d="M216.794,4.1v15.736h8.399V23.7h-12.824V4.1H216.794z"/>
	<path fill="#ECEFF4" d="M243.13,7.684c-1.483,0-2.492,0.531-2.492,1.596c0,3.612,10.444,1.596,10.416,8.653
		c0,3.836-3.332,5.907-7.672,5.907c-3.22,0-6.439-1.231-8.651-3.107l1.764-3.612c2.016,1.792,4.872,2.94,6.944,2.94
		c1.819,0,2.912-0.672,2.912-1.876c0-3.697-10.444-1.541-10.444-8.485c0-3.556,3.052-5.796,7.588-5.796
		c2.744,0,5.488,0.84,7.448,2.128L249.234,9.7C247.162,8.467,244.698,7.684,243.13,7.684z"/>
</g>
<rect x="0.102" y="28" class="logo_accent" fill="#8000FF" width="27.358" height="4"/>
</svg>
